<svg xmlns="http://www.w3.org/2000/svg" viewBox="0 0 200.07 200"><defs><style>.a{fill:#fff;}.b{fill:#f14130;}</style></defs><title>Leuchtfeuer Digital Marketing</title><path class="a" d="M82.81,55.59h39.7a3.25,3.25,0,0,0,0-6.49h-2V45.4a1.73,1.73,0,0,0-.85-1.48L105.89,36V33.24a3.25,3.25,0,0,0-6.49,0V36L85.67,43.94a1.71,1.71,0,0,0-.86,1.48V49.1h-2a3.25,3.25,0,0,0,0,6.49Z" transform="translate(0.04 0)"/><path class="a" d="M134,166.11l-3.8-33a2.17,2.17,0,0,0-3.49-1.46L71.42,175.17a2.12,2.12,0,0,0-.81,1.46L68.5,194.92a99.74,99.74,0,0,0,24.43,4.83l40.28-31.7A2.17,2.17,0,0,0,134,166.11Z" transform="translate(0.04 0)"/><path class="a" d="M129,81.83H76.28A3.25,3.25,0,0,0,73,85.08v7.66A3.25,3.25,0,0,0,76.28,96H79.6l-5.23,45.27a2.15,2.15,0,0,0,2.15,2.41,2.2,2.2,0,0,0,1.34-.46l47.89-37.63a2.17,2.17,0,0,0,.81-2L125.68,96H129a3.26,3.26,0,0,0,3.22-3.26l0-7.66A3.27,3.27,0,0,0,129,81.83Z" transform="translate(0.04 0)"/><path class="b" d="M100,0A100,100,0,0,0,68.5,194.92l2.11-18.29a2.12,2.12,0,0,1,.81-1.46l55.32-43.52a2.17,2.17,0,0,1,3.49,1.46l3.8,33a2.17,2.17,0,0,1-.82,1.94l-40.28,31.7c2.35.16,4.72.25,7.11.25A100,100,0,0,0,100,0ZM82.81,49.1h2V45.42a1.71,1.71,0,0,1,.86-1.48L99.4,36V33.24a3.25,3.25,0,0,1,6.49,0V36l13.77,7.92a1.73,1.73,0,0,1,.85,1.48v3.7h2a3.25,3.25,0,0,1,0,6.49H82.81a3.25,3.25,0,0,1,0-6.49Zm49.45,43.64A3.26,3.26,0,0,1,129,96h-3.36l.88,7.64a2.17,2.17,0,0,1-.81,2L77.86,143.22a2.2,2.2,0,0,1-1.34.46,2.15,2.15,0,0,1-2.15-2.41L79.6,96H76.28A3.25,3.25,0,0,1,73,92.74V85.08a3.25,3.25,0,0,1,3.24-3.25H129a3.27,3.27,0,0,1,3.25,3.25Z" transform="translate(0.04 0)"/></svg>